<svg width="472" height="472" viewBox="0 0 472 472" fill="none" xmlns="http://www.w3.org/2000/svg">
<rect x="5" y="5" width="462" height="462" stroke="url(#paint0_linear_601_13)" stroke-width="10"/>
<path d="M90.3713 261.7H172.651L132.191 148.48H131.511L90.3713 261.7ZM114.511 119.24H150.211L245.071 362H209.371L182.851 288.9H80.1713L52.9713 362H19.9912L114.511 119.24ZM409.44 190.3C407.627 172.847 401.28 160.267 390.4 152.56C379.747 144.627 366.033 140.66 349.26 140.66C342.46 140.66 335.773 141.34 329.2 142.7C322.627 144.06 316.733 146.327 311.52 149.5C306.533 152.673 302.453 156.98 299.28 162.42C296.333 167.633 294.86 174.207 294.86 182.14C294.86 189.62 297.013 195.74 301.32 200.5C305.853 205.033 311.747 208.773 319 211.72C326.48 214.667 334.867 217.16 344.16 219.2C353.453 221.013 362.86 223.053 372.38 225.32C382.127 227.587 391.647 230.307 400.94 233.48C410.233 236.427 418.507 240.507 425.76 245.72C433.24 250.933 439.133 257.507 443.44 265.44C447.973 273.373 450.24 283.347 450.24 295.36C450.24 308.28 447.293 319.387 441.4 328.68C435.733 337.747 428.367 345.227 419.3 351.12C410.233 356.787 400.033 360.867 388.7 363.36C377.593 366.08 366.487 367.44 355.38 367.44C341.78 367.44 328.86 365.74 316.62 362.34C304.607 358.94 293.953 353.84 284.66 347.04C275.593 340.013 268.34 331.173 262.9 320.52C257.687 309.64 255.08 296.833 255.08 282.1H285.68C285.68 292.3 287.607 301.14 291.46 308.62C295.54 315.873 300.753 321.88 307.1 326.64C313.673 331.4 321.267 334.913 329.88 337.18C338.493 339.447 347.333 340.58 356.4 340.58C363.653 340.58 370.907 339.9 378.16 338.54C385.64 337.18 392.327 334.913 398.22 331.74C404.113 328.34 408.873 323.807 412.5 318.14C416.127 312.473 417.94 305.22 417.94 296.38C417.94 287.993 415.673 281.193 411.14 275.98C406.833 270.767 400.94 266.573 393.46 263.4C386.207 260 377.933 257.28 368.64 255.24C359.347 253.2 349.827 251.16 340.08 249.12C330.56 246.853 321.153 244.36 311.86 241.64C302.567 238.693 294.18 234.953 286.7 230.42C279.447 225.66 273.553 219.653 269.02 212.4C264.713 204.92 262.56 195.627 262.56 184.52C262.56 172.28 265.053 161.74 270.04 152.9C275.027 143.833 281.6 136.467 289.76 130.8C298.147 124.907 307.553 120.6 317.98 117.88C328.633 114.933 339.513 113.46 350.62 113.46C363.087 113.46 374.647 114.933 385.3 117.88C395.953 120.827 405.247 125.473 413.18 131.82C421.34 138.167 427.687 146.213 432.22 155.96C436.98 165.48 439.587 176.927 440.04 190.3H409.44Z" fill="url(#paint1_linear_601_13)"/>
<defs>
<linearGradient id="paint0_linear_601_13" x1="0" y1="0" x2="236" y2="472" gradientUnits="userSpaceOnUse">
<stop stop-color="#8EA8CD"/>
<stop offset="1" stop-color="#A7C1FF"/>
</linearGradient>
<linearGradient id="paint1_linear_601_13" x1="22" y1="33" x2="214.766" y2="451.767" gradientUnits="userSpaceOnUse">
<stop stop-color="#8EA8CD"/>
<stop offset="1" stop-color="#A7C1FF"/>
</linearGradient>
</defs>
</svg>
